# xmcd CD database file
#
# Track frame offsets:
#	150
#	35145
#	56387
#	92225
#	131167
#	160965
#	188640
#	213132
#	250392
#	274615
#
# Disc length: 4327 seconds
#
# Revision: 2
# Processed by: cddbd v1.5PL3 Copyright (c) Steve Scherf et al.
# Submitted via: CDex 1.51
#
DISCID=8d10e50a
DTITLE=Lloyd Jones - Have Mercy - Live
DYEAR=1995
DGENRE=Blues
TTITLE0=Let's have a Natural Ball
TTITLE1=Driving Wheel
TTITLE2=I'm a Fool for You
TTITLE3=Crying Fool
TTITLE4=Going Away, Baby
TTITLE5=Live It Up
TTITLE6=I Can't Get You Off My Mind
TTITLE7=Gone to Main Street
TTITLE8=It Hurts Me Too
TTITLE9=Everything I Do Gonna Be Funky
EXTD=YEAR: 1995
EXTT0=
EXTT1=
EXTT2=
EXTT3=
EXTT4=
EXTT5=
EXTT6=
EXTT7=
EXTT8=
EXTT9=
PLAYORDER=
